# xmcd CD database file
#
# Track frame offsets:
#	150
#	19725
#	46399
#	68178
#	84727
#	108302
#	126452
#	161365
#	174839
#	196024
#	215795
#	243686
#	273406
#	293415
#	326766
#
# Disc length: 4655 seconds
#
# Revision: 0
# Processed by: cddbd v1.5.2PL0 Copyright (c) Steve Scherf et al.
# Submitted via: CDex 1.70beta2
#
DISCID=d8122d0f
DTITLE=Art Pepper - Work of Art 4 - Red Pepper Blues
DYEAR=1957
DGENRE=Jazz
TTITLE0=Birks Works
TTITLE1=Imagination
TTITLE2=Jazz Me Blues
TTITLE3=Red Pepper Blues
TTITLE4=Star Eues
TTITLE5=Straight Life
TTITLE6=Tin Tin Deo
TTITLE7=Waltz Me Blues
TTITLE8=Surf Ride
TTITLE9=Body and Soul
TTITLE10=Too Close for Comfort
TTITLE11=Summertime
TTITLE12=Fascinatin' Rhythm
TTITLE13=Begin the Beguine
TTITLE14=Webb City
EXTD=YEAR: 1957
EXTT0=
EXTT1=
EXTT2=
EXTT3=
EXTT4=
EXTT5=
EXTT6=
EXTT7=
EXTT8=
EXTT9=
EXTT10=
EXTT11=
EXTT12=
EXTT13=
EXTT14=
PLAYORDER=
